<svg width="30" height="29" viewBox="0 0 30 29" fill="none" xmlns="http://www.w3.org/2000/svg">
<path d="M2.54167 10.9681L11.9576 18.0786L11.9607 18.0812C13.0063 18.8479 13.5293 19.2315 14.1023 19.3797C14.6086 19.5107 15.1409 19.5107 15.6473 19.3797C16.2208 19.2314 16.7454 18.8467 17.7927 18.0786L27.2083 10.9681M26.9003 9.48727L18.2685 2.57618C17.1967 1.71806 16.6604 1.28915 16.0644 1.11883C15.5385 0.968543 14.9817 0.960582 14.4519 1.09624C13.8514 1.25 13.3038 1.66377 12.2087 2.49187L2.95719 9.48763C2.23919 10.0306 1.88065 10.3022 1.62179 10.6453C1.39251 10.9492 1.22165 11.2929 1.11754 11.6591C1 12.0725 1 12.5226 1 13.4228V22.9933C1 24.7201 1 25.5839 1.33606 26.2435C1.63167 26.8237 2.10302 27.295 2.68319 27.5906C3.3421 27.9264 4.20512 27.9264 5.92857 27.9264H23.8214C25.5449 27.9264 26.4067 27.9264 27.0656 27.5906C27.6457 27.295 28.1187 26.8233 28.4143 26.2431C28.75 25.5842 28.75 24.722 28.75 22.9985V13.3214C28.75 12.4625 28.75 12.0304 28.6401 11.6312C28.5421 11.2753 28.3793 10.9398 28.1627 10.6408C27.9182 10.3033 27.5797 10.0312 26.9003 9.48727Z" stroke="white" stroke-width="2" stroke-linecap="round" stroke-linejoin="round"/>
</svg>
