<svg width="46" height="38" viewBox="0 0 46 38" fill="none" xmlns="http://www.w3.org/2000/svg">
<path d="M1 37H5.4M5.4 37H18.6M5.4 37V18.1702C5.4 16.9932 5.4 16.4043 5.54294 15.8566C5.66961 15.3712 5.87914 14.9119 6.16055 14.4968C6.47809 14.0284 6.91941 13.64 7.8041 12.8649L18.3676 3.60979C20.0077 2.17286 20.8277 1.45435 21.7513 1.18087C22.5657 0.93971 23.4338 0.93971 24.2482 1.18087C25.1725 1.45456 25.9938 2.17374 27.6363 3.61284L38.1963 12.8649C39.081 13.64 39.5225 14.0284 39.8401 14.4968C40.1215 14.9119 40.3294 15.3712 40.4561 15.8566C40.599 16.4043 40.6 16.9932 40.6 18.1702V37M18.6 37H27.4M18.6 37V28.1885C18.6 25.7553 20.5699 23.7828 23 23.7828C25.4301 23.7828 27.4 25.7553 27.4 28.1885V37M27.4 37H40.6M40.6 37H45" stroke="white" stroke-width="2" stroke-linecap="round" stroke-linejoin="round"/>
</svg>
