<?xml version="1.0" encoding="UTF-8"?><svg id="a" xmlns="http://www.w3.org/2000/svg" viewBox="0 0 12390.93 4519.95"><path d="M2395.69,3708.87c-726.23,0-1314.96-588.73-1314.96-1314.96s588.73-1314.96,1314.96-1314.96c534.64,0,994.42,319.26,1199.98,777.37h857.35c-238.15-913.86-1068.9-1588.45-2057.33-1588.45-165.75,0-326.83,19.59-481.67,55.47-7.24,30.39-.06,67.01,28.3,110.62,93.12,143.19,337.11,51.63,306.04,325.73-18.53,163.52-228.86,172.93-346.81,211.52-385.31,126.08-779.87,524.69-916,904.72-44.58,124.46-55.76,349.81-224.09,370.61-278.65,34.44-180.94-227.96-331.15-312.73-42.66-24.07-76.92-30.14-104.75-23.53-36.18,155.44-55.93,317.18-55.93,483.63,0,1174.18,951.86,2126.05,2126.04,2126.05,946.03,0,1747.34-618.08,2023.18-1472.31h-882.42c-226.86,394.99-652.58,661.23-1140.76,661.23Z" style="fill:#ee7c2d;"/><path d="M1978.4,0c22.78,17.39,54.67,11.24,83.9,21.61,88.61,31.43,163.57,123.85,193.74,211.6h-161.03c-17.68,0-99.52,8.5-121.26,12.01-114.81,18.52-223.38,81.27-141.83,206.66,85.2,131.01,308.43,47.24,280.01,298.02-16.96,149.6-209.39,158.22-317.3,193.53-352.53,115.36-713.52,480.05-838.07,827.75-40.79,113.87-51.02,320.04-205.02,339.08-254.95,31.51-165.55-208.57-302.98-286.12-227.88-128.6-198.87,294.42-213.65,413.87-1.55,12.49,3.98,22.6-16.51,16.26-27.3-8.46-144.14-101.96-161.31-127.49-34.82-51.78-34.51-116.07-55.46-172.2,3.7-69.31-5.06-142.14,0-211C68.08,839.86,804.01,68.42,1716.26,10.1l17.82-10.1h244.32Z" style="fill:#ed7c2c;"/><path d="M2868.8,1856.31h568.42c-16.58-105.69-130.8-232.67-207.19-306.7-925.17-896.6-2421.33,122.02-1914.85,1320.08,196.34,464.44,631.82,708.63,1071.74,715.33.26,0,.52.02.77.02,10.13.15,20.27-.41,30.41-.52,407.13-7.56,764.26-219,973.38-536.88h-992.04c-328.98,0-595.67-266.69-595.67-595.67h0c0-296.34,216.63-541.44,500.02-587.29,14.05-3.93,26.73-6.8,35.33-6.8h29.19c10.38-.54,20.62-1.57,31.13-1.57h369.01c-29.29-33.01-70.93-33.44-92.73-80.13-115.46-247.3,308.01-324.34,288.81-58.2-5.52,76.47-48.46,91.68-95.72,138.33ZM2450.89,3086.42c238.39-54.55,271.18,261.51,79.46,298.34-200.87,38.6-241.34-261.3-79.46-298.34ZM1596.45,2946.41c-148.83-125.4,14.17-363.56,184.37-251.06,177.09,117.05-31.09,380.21-184.37,251.06ZM1892.47,1957.44c-209.66,113.63-319.31-259.67-84.17-291.38,168.7-22.75,237.02,208.54,84.17,291.38Z" style="fill:#ed7c2c;"/><path d="M2277.86,2033.37h167.73l95.39,640.38,231.95-640.38h159l217,615.44,101.02-615.44h162.73l-167.73,891.66h-157.12l-245.05-699.61-263.14,699.61h-155.25l-146.53-891.66Z" style="fill:#fff;"/><path d="M4113.54,2033.37v142.17h-421.52v224.47h400.31v147.78h-402.17v377.23h-162.12v-891.66h585.5Z" style="fill:#fff;"/><path d="M4836.83,2033.37v143.41h-255.64v748.25h-165.23v-748.25h-255.66v-143.41h676.53Z" style="fill:#fff;"/><path d="M5210.95,2925.03v-891.66h399.06c182.06,0,273.11,83.77,273.11,251.28,0,181.66-124.5,291.61-373.5,329.86l-23.69-147.16c149.64-27.02,224.47-86.25,224.47-177.7,0-74-37-111-110.98-111h-223.23v746.38h-165.23Z" style="fill:#fff;"/><path d="M5976.65,2925.03v-654.72h127.83l20.58,96.03c62.77-64.02,134.27-96.03,214.5-96.03,155.05,0,232.58,80.66,232.58,241.94v412.78h-165.23v-412.78c0-72.33-35.97-108.5-107.88-108.5-53.62,0-106.02,21.42-157.14,64.23v457.05h-165.23Z" style="fill:#fff;"/><path d="M7004.24,2270.31c198.69,0,298.05,101.44,298.05,304.3,0,27.03-1.88,54.05-5.61,81.05h-434.61c0,92.3,67.75,138.44,203.28,138.44,66.09,0,132.19-6.23,198.28-18.72v130.95c-57.78,12.47-128.05,18.7-210.77,18.7-237.36,0-356.03-111.61-356.03-334.84s102.47-319.88,307.41-319.88ZM6862.07,2540.94h279.34v-5c0-90.61-45.73-135.92-137.17-135.92s-134.7,46.98-142.17,140.92Z" style="fill:#fff;"/><path d="M8015.61,2270.31v654.72h-129.08l-19.95-83.55c-75.25,55.7-155.06,83.55-239.44,83.55-133.86,0-200.78-79.19-200.78-237.56v-417.16h165.23v412.78c0,72.34,31.59,108.5,94.78,108.5,53.62,0,108.28-21.41,164-64.22v-457.06h165.23Z" style="fill:#fff;"/><path d="M8171.48,2925.03v-654.72h127.83l19.33,94.78c58.61-63.19,129.06-94.78,211.38-94.78s138.64,29.94,168.98,89.8c66.92-59.86,136.97-89.8,210.12-89.8,150.47,0,225.72,82.94,225.72,248.8v405.92h-165.23v-412.16c0-72.75-32.84-109.12-98.52-109.12-49.06,0-96.23,22.03-141.55,66.09v455.19h-165.23v-410.28c0-74-30.34-111-91.03-111-48.22,0-93.75,22.03-136.56,66.09v455.19h-165.23Z" style="fill:#fff;"/><path d="M9259.55,2721.14c0-130.11,94.77-195.17,284.33-195.17,44.47,0,88.95,4.16,133.44,12.47v-49.25c0-58.61-42.2-87.92-126.58-87.92-71.5,0-150.91,10.39-238.19,31.17v-130.94c87.28-20.78,166.69-31.19,238.19-31.19,194.53,0,291.81,71.92,291.81,215.75v438.97h-96.02l-58.61-58.61c-56.97,39.08-119.73,58.61-188.31,58.61-160.05,0-240.06-67.95-240.06-203.89ZM9543.88,2638.2c-79.41,0-119.09,27.03-119.09,81.06,0,58.2,33.25,87.3,99.77,87.3,54.88,0,105.8-17.05,152.77-51.14v-104.75c-41.56-8.31-86.05-12.47-133.44-12.47Z" style="fill:#fff;"/><path d="M9989.09,2164.31h122.2l24.95,106h164.61v130.95h-146.53v301.16c0,61.12,26.39,91.67,79.19,91.67h67.34v130.94h-147.16c-109.75,0-164.61-58.81-164.61-176.45v-584.27Z" style="fill:#fff;"/><path d="M10335.14,2270.31h175.22l165.23,471.41,161.5-471.41h172.09l-271.86,674.05c-48.23,118.88-125.34,203.47-231.34,253.78l-79.81-112.86c73.16-32.02,126.38-84.19,159.62-156.52l-250.66-658.45Z" style="fill:#fff;"/><path d="M11087.12,2925.03v-891.66h165.23v288.08c67.75-34.09,139.05-51.14,213.88-51.14,167.11,0,250.67,62.98,250.67,188.94,0,91.45-58.2,162.95-174.59,214.5l203.27,251.28h-202.02l-170.86-233.83v-76.69c119.3-25.36,178.95-66.94,178.95-124.72s-39.5-88.53-118.47-88.53c-55.28,0-115.56,17.47-180.83,52.38v471.39h-165.23Z" style="fill:#fff;"/><path d="M11807.93,2721.14c0-130.11,94.77-195.17,284.33-195.17,44.47,0,88.95,4.16,133.44,12.47v-49.25c0-58.61-42.2-87.92-126.58-87.92-71.5,0-150.91,10.39-238.19,31.17v-130.94c87.28-20.78,166.69-31.19,238.19-31.19,194.53,0,291.81,71.92,291.81,215.75v438.97h-96.02l-58.61-58.61c-56.97,39.08-119.73,58.61-188.31,58.61-160.05,0-240.06-67.95-240.06-203.89ZM12092.26,2638.2c-79.41,0-119.09,27.03-119.09,81.06,0,58.2,33.25,87.3,99.77,87.3,54.88,0,105.8-17.05,152.77-51.14v-104.75c-41.56-8.31-86.05-12.47-133.44-12.47Z" style="fill:#fff;"/><path d="M9351.99,3212.83h53.55l30.46,204.44,74.05-204.44h50.76l69.27,196.47,32.25-196.47h51.96l-53.55,284.66h-50.16l-78.23-223.35-84,223.35h-49.57l-46.78-284.66Z" style="fill:#fff;"/><path d="M9736.18,3432.4c0-41.54,30.26-62.31,90.77-62.31,14.2,0,28.4,1.33,42.6,3.98v-15.73c0-18.71-13.47-28.07-40.41-28.07-22.83,0-48.17,3.32-76.04,9.95v-41.8c27.87-6.63,53.22-9.95,76.04-9.95,62.11,0,93.16,22.96,93.16,68.88v140.14h-30.66l-18.71-18.71c-18.18,12.48-38.22,18.71-60.12,18.71-51.09,0-76.64-21.7-76.64-65.09ZM9826.96,3405.92c-25.35,0-38.02,8.63-38.02,25.88,0,18.58,10.62,27.87,31.85,27.87,17.52,0,33.77-5.44,48.77-16.32v-33.44c-13.27-2.65-27.47-3.98-42.6-3.98Z" style="fill:#fff;"/><path d="M10024.82,3212.83v284.66h-52.75v-284.66h52.75Z" style="fill:#fff;"/><path d="M10259.72,3484.95c-31.98,8.36-63.24,12.54-93.76,12.54-67.55,0-101.32-36.23-101.32-108.69,0-66.88,33.04-100.33,99.13-100.33,14.07,0,28.47,3.32,43.2,9.95v-85.6h52.75v272.12ZM10206.97,3343.02c-10.88-7.17-24.55-10.75-41.01-10.75-32.78,0-49.17,18.38-49.17,55.14,0,43.66,17.05,65.49,51.16,65.49,13.8,0,26.8-1.92,39.02-5.77v-104.11Z" style="fill:#fff;"/><path d="M10397.67,3288.48c63.43,0,95.15,32.38,95.15,97.14,0,8.63-.6,17.25-1.79,25.88h-138.75c0,29.46,21.63,44.19,64.89,44.19,21.1,0,42.2-1.99,63.3-5.97v41.8c-18.45,3.98-40.88,5.97-67.28,5.97-75.78,0-113.67-35.63-113.67-106.9s32.71-102.12,98.14-102.12ZM10352.28,3374.87h89.18v-1.59c0-28.93-14.6-43.4-43.79-43.4s-43,15-45.39,44.99Z" style="fill:#fff;"/><path d="M10532.43,3497.49v-209.02h40.81l6.17,30.26c18.71-20.17,41.21-30.26,67.48-30.26s44.26,9.55,53.95,28.67c21.36-19.11,43.72-28.67,67.08-28.67,48.04,0,72.06,26.48,72.06,79.43v129.59h-52.75v-131.58c0-23.22-10.48-34.84-31.45-34.84-15.66,0-30.72,7.04-45.19,21.1v145.32h-52.75v-130.98c0-23.62-9.69-35.43-29.06-35.43-15.4,0-29.93,7.04-43.59,21.1v145.32h-52.75Z" style="fill:#fff;"/><path d="M10879.8,3432.4c0-41.54,30.26-62.31,90.77-62.31,14.2,0,28.4,1.33,42.6,3.98v-15.73c0-18.71-13.47-28.07-40.41-28.07-22.83,0-48.17,3.32-76.04,9.95v-41.8c27.87-6.63,53.22-9.95,76.04-9.95,62.11,0,93.16,22.96,93.16,68.88v140.14h-30.66l-18.71-18.71c-18.18,12.48-38.22,18.71-60.12,18.71-51.09,0-76.64-21.7-76.64-65.09ZM10970.57,3405.92c-25.35,0-38.02,8.63-38.02,25.88,0,18.58,10.62,27.87,31.85,27.87,17.52,0,33.77-5.44,48.77-16.32v-33.44c-13.27-2.65-27.47-3.98-42.6-3.98Z" style="fill:#fff;"/><path d="M11115.69,3497.49v-209.02h40.81l6.57,26.67c18.31-17.78,37.69-26.67,58.13-26.67v42.6c-19.64,0-37.22,8.16-52.75,24.48v141.93h-52.75Z" style="fill:#fff;"/><path d="M11345.6,3497.49v-284.66h133.37c54.14,0,81.22,22.1,81.22,66.29,0,32.38-17.65,55.54-52.95,69.47,37.69,7.04,56.53,28.6,56.53,64.7,0,56.14-29.66,84.2-88.98,84.2h-129.19ZM11472.6,3451.71c23.36,0,35.04-11.94,35.04-35.83,0-29.59-17.45-44.39-52.35-44.39h-15.92v-34.04c43.79-7.3,65.69-25.61,65.69-54.94,0-15.92-9.82-23.89-29.46-23.89h-77.24v193.09h74.25Z" style="fill:#fff;"/><path d="M11593.64,3432.4c0-41.54,30.26-62.31,90.77-62.31,14.2,0,28.4,1.33,42.6,3.98v-15.73c0-18.71-13.47-28.07-40.41-28.07-22.83,0-48.17,3.32-76.04,9.95v-41.8c27.87-6.63,53.22-9.95,76.04-9.95,62.11,0,93.16,22.96,93.16,68.88v140.14h-30.66l-18.71-18.71c-18.18,12.48-38.22,18.71-60.12,18.71-51.09,0-76.64-21.7-76.64-65.09ZM11684.41,3405.92c-25.35,0-38.02,8.63-38.02,25.88,0,18.58,10.62,27.87,31.85,27.87,17.52,0,33.77-5.44,48.77-16.32v-33.44c-13.27-2.65-27.47-3.98-42.6-3.98Z" style="fill:#fff;"/><path d="M11882.28,3212.83v284.66h-52.75v-284.66h52.75Z" style="fill:#fff;"/><path d="M11922.09,3432.4c0-41.54,30.26-62.31,90.77-62.31,14.2,0,28.4,1.33,42.6,3.98v-15.73c0-18.71-13.47-28.07-40.41-28.07-22.83,0-48.17,3.32-76.04,9.95v-41.8c27.87-6.63,53.22-9.95,76.04-9.95,62.11,0,93.16,22.96,93.16,68.88v140.14h-30.66l-18.71-18.71c-18.18,12.48-38.22,18.71-60.12,18.71-51.09,0-76.64-21.7-76.64-65.09ZM12012.86,3405.92c-25.35,0-38.02,8.63-38.02,25.88,0,18.58,10.62,27.87,31.85,27.87,17.52,0,33.77-5.44,48.77-16.32v-33.44c-13.27-2.65-27.47-3.98-42.6-3.98Z" style="fill:#fff;"/><path d="M12157.98,3497.49v-284.66h52.75v91.97c21.63-10.88,44.39-16.32,68.28-16.32,53.35,0,80.02,20.11,80.02,60.32,0,29.2-18.58,52.02-55.74,68.48l64.89,80.22h-64.5l-54.54-74.65v-24.48c38.09-8.09,57.13-21.37,57.13-39.81s-12.61-28.27-37.82-28.27c-17.65,0-36.89,5.57-57.73,16.72v150.49h-52.75Z" style="fill:#fff;"/></svg>