<?xml version="1.0" encoding="UTF-8"?><svg id="a" xmlns="http://www.w3.org/2000/svg" viewBox="0 0 163.12 156.5"><path d="M157.74,61.4c-3.45-8.15-8.38-15.47-14.67-21.76-6.28-6.28-13.6-11.22-21.76-14.67-6.8-2.87-13.93-4.61-21.27-5.17v-7.54h4.37c3.39,0,6.14-2.75,6.14-6.14s-2.75-6.14-6.14-6.14h-19.48c-3.39,0-6.14,2.75-6.14,6.14s2.75,6.14,6.14,6.14h4.37v7.54c-12.12.94-23.68,5.05-33.71,12.04-5.54,3.86-10.47,8.5-14.66,13.8-3.45,4.37-6.35,9.13-8.64,14.17H14.46c-2.97,0-5.37,2.41-5.37,5.37s2.41,5.37,5.37,5.37h21.34s.05,0,.07,0c.03,0,.06,0,.08,0h18.65c2.97,0,5.37-2.41,5.37-5.37s-2.41-5.37-5.37-5.37h-10.26c1.47-2.62,3.15-5.13,5.03-7.51,3.53-4.47,7.69-8.39,12.37-11.64,9.69-6.75,21.08-10.32,32.94-10.32,7.79,0,15.35,1.52,22.46,4.53,6.87,2.91,13.04,7.07,18.34,12.37,5.3,5.3,9.46,11.47,12.37,18.34,3.01,7.11,4.53,14.67,4.53,22.46s-1.52,15.35-4.53,22.46c-2.91,6.87-7.07,13.04-12.37,18.34s-11.47,9.46-18.34,12.37c-7.11,3.01-14.67,4.53-22.46,4.53-11.86,0-23.25-3.57-32.94-10.32-4.67-3.25-8.83-7.17-12.37-11.64-1.88-2.38-3.56-4.89-5.03-7.51h10.26c2.97,0,5.37-2.41,5.37-5.37s-2.41-5.37-5.37-5.37h-18.67c-.06,0-.13,0-.19,0h-15.13c-2.97,0-5.37,2.41-5.37,5.37s2.41,5.37,5.37,5.37h11.69c2.29,5.05,5.18,9.8,8.63,14.17,4.19,5.3,9.12,9.94,14.66,13.8,11.5,8.01,25.02,12.25,39.08,12.25,9.24,0,18.2-1.81,26.64-5.38,8.15-3.45,15.47-8.38,21.76-14.67,6.28-6.28,11.22-13.6,14.67-21.76,3.57-8.44,5.38-17.41,5.38-26.64s-1.81-18.2-5.38-26.64Z" style="fill:#f37021;"/><path d="M124.49,55.39l-28.42,18.81c-4.01-.4-8.17.93-11.24,4-2.63,2.63-4.08,6.13-4.08,9.84s1.45,7.21,4.08,9.84c2.63,2.63,6.13,4.08,9.84,4.08s7.21-1.45,9.84-4.08c0,0,0,0,0,0,2.63-2.63,4.08-6.13,4.08-9.84,0-.47-.02-.94-.07-1.41l18.8-28.41c1.23-1.86-.98-4.07-2.84-2.84ZM96.92,90.29h0c-1.24,1.24-3.25,1.24-4.49,0-.6-.6-.93-1.4-.93-2.24s.33-1.65.93-2.25,1.43-.93,2.24-.93,1.63.31,2.24.93.93,1.4.93,2.25-.33,1.65-.93,2.24Z" style="fill:#f37021;"/><path d="M63.19,88.05c0-2.97-2.41-5.37-5.37-5.37H5.37c-2.97,0-5.37,2.41-5.37,5.37s2.41,5.37,5.37,5.37h52.45c2.97,0,5.37-2.41,5.37-5.37Z" style="fill:#f37021;"/></svg>