<?xml version="1.0" encoding="UTF-8"?><svg xmlns="http://www.w3.org/2000/svg" viewBox="0 0 123.37 158.21"><g id="a"><path d="M80.32,112.7c-2.41,4.82-9.56,8.34-18.01,8.34s-16.08-3.76-18.22-8.83l3.9-1.32v-6.99c4.24,3.77,9.41,5.83,14.7,5.83s9.82-1.79,13.93-5.19v6.67l3.69,1.49Z" style="fill:#f37021;"/><path d="M89.03,73.78l-2.88-.8-.14-.05c-.27-.1-.88-.27-2.15-.47l-1.8,2.72-.06.13-.08.08-.27.43c-.14.23-.27.44-.4.63-1.04,1.53-1.86,2.38-4.26,2.38h-.72l-.35-.19c-.71-.37-5.32-1.08-13.2-1.08s-12.35.64-13.17,1.08l-.35.19h-.72c-2.46,0-3.26-.89-4.32-2.49-.11-.17-.23-.35-.35-.55l-.26-.4-.08-.06-.08-.16-1.78-2.7c-1.28.19-1.9.37-2.17.45l-.14.06-2.78.55c-.74,1.69-1,4.05-.61,6.6.5,3.34,1.99,6.02,3.71,7.04.18.11.35.21.55.27,1.44,5.69,4.22,10.64,7.87,14.27,4.03,4.03,9.14,6.43,14.7,6.43,5.2,0,10.02-2.1,13.93-5.7,4.05-3.69,7.13-8.93,8.68-15.02,1.94-.72,3.68-3.61,4.24-7.28.35-2.43.13-4.69-.52-6.35ZM87.95,79.9c-.51,3.31-2.02,5.56-3.21,5.99l-.79.31-.21.8c-1.43,5.65-4.34,10.71-8.19,14.23-3.76,3.45-8.19,5.29-12.85,5.29-4.98,0-9.67-2.06-13.56-5.96-3.52-3.5-6.09-8.18-7.45-13.53l-.22-.85-.84-.27s-.07-.03-.18-.1c-1.14-.68-2.52-2.79-2.99-5.93-.27-1.82-.19-3.58.21-4.96l2.07-.4.16-.08c.11-.03.39-.11.92-.21l1.14,1.73.19.38.16.13.45.71c1.19,1.79,2.41,3.25,5.69,3.25h1.14l.71-.39c.53-.23,4.59-.88,12.4-.88s11.89.67,12.51.92l.63.35h1.14c3.21,0,4.44-1.4,5.59-3.08l.61-.95.05-.07.19-.3,1.19-1.8c.5.1.76.18.87.21l.18.06,2.12.59c.35,1.37.43,3.07.17,4.8Z" style="fill:#f37021;"/><polygon points="26.35 145.78 26.67 145.78 40.13 145.78 40.13 133.95 84.8 133.95 84.8 145.78 98.36 145.78 98.36 158.21 26.27 158.21 26.27 145.78 26.35 145.78" style="fill:#f37021;"/><path d="M27.95,114.64v29.53h10.57v-32.8l-10.57,3.28ZM33.24,142.5c-1.9,0-3.44-1.54-3.44-3.45s1.54-3.44,3.44-3.44,3.45,1.54,3.45,3.44-1.54,3.45-3.45,3.45Z" style="fill:#f37021;"/><path d="M86.41,111.37v32.8h10.57v-29.53l-10.57-3.28ZM91.69,142.5c-1.91,0-3.44-1.54-3.44-3.45s1.53-3.44,3.44-3.44,3.44,1.54,3.44,3.44-1.54,3.45-3.44,3.45Z" style="fill:#f37021;"/><path d="M87.31,62.13v9.83c0-.45-1.41-.85-3.89-1.19-.11-.02-.24-.03-.35-.05l-2.38,3.6s-.02.03-.03.05c-1.51,2.3-1.67,2.84-3.68,2.84h-.32c-1.35-.72-7.1-1.27-13.96-1.27s-12.55.53-13.93,1.27h-.32c-2.02,0-2.18-.55-3.68-2.84-.02-.02-.02-.03-.03-.05l-2.39-3.6c-.11.02-.24.03-.35.05-2.46.33-3.89.74-3.89,1.19v-9.83c0-10.78,11-18.09,24.59-18.09s24.61,7.31,24.61,18.09Z" style="fill:#f37021;"/></g><g id="b"><polygon points="62.71 0 67.15 13.69 81.54 13.69 69.9 22.14 74.35 35.83 62.71 27.37 51.07 35.83 55.51 22.14 43.87 13.69 58.26 13.69 62.71 0" style="fill:#f37021;"/><polygon points="94.07 27.46 101.83 35.33 111.71 30.39 106.62 40.2 114.38 48.07 103.47 46.26 98.39 56.07 96.74 45.14 85.83 43.34 95.72 38.39 94.07 27.46" style="fill:#f37021;"/><polygon points="116.68 62.48 116.25 70.1 123.37 72.87 115.98 74.82 115.55 82.44 111.42 76.02 104.03 77.96 108.87 72.05 104.73 65.63 111.85 68.39 116.68 62.48" style="fill:#f37021;"/><polygon points="26.13 26.63 20.25 35.99 9.54 33.29 16.62 41.77 10.74 51.13 20.99 47.01 28.07 55.5 27.33 44.47 37.59 40.36 26.87 37.66 26.13 26.63" style="fill:#f37021;"/><polygon points="2.38 66.09 5.6 73.01 0 78.21 7.58 77.3 10.8 84.22 12.27 76.73 19.85 75.81 13.18 72.1 14.65 64.6 9.05 69.8 2.38 66.09" style="fill:#f37021;"/></g></svg>