<?xml version="1.0" encoding="UTF-8"?><svg id="a" xmlns="http://www.w3.org/2000/svg" viewBox="0 0 137.1 182.07"><path d="M68.55,135.6c-3.15,0-5.55-2.68-7.67-5.04-1.35-1.51-2.89-3.22-3.98-3.44-1.18-.23-3.31.79-5.19,1.69-2.95,1.41-6,2.87-8.83,1.7-2.87-1.19-4.06-4.56-5.1-7.54-.68-1.94-1.45-4.13-2.41-4.77-.97-.65-3.31-.53-5.38-.42-3.28.17-6.68.36-8.86-1.82-2.18-2.18-2-5.58-1.83-8.86.11-2.06.23-4.4-.42-5.38-.64-.95-2.83-1.72-4.77-2.41-2.97-1.05-6.34-2.23-7.54-5.1-1.17-2.82.29-5.88,1.7-8.83.9-1.88,1.92-4.01,1.69-5.19-.22-1.09-1.93-2.63-3.44-3.98-2.36-2.12-5.04-4.52-5.04-7.67s2.68-5.55,5.04-7.67c1.51-1.35,3.22-2.89,3.44-3.98.23-1.18-.79-3.31-1.69-5.19-1.41-2.95-2.87-6-1.7-8.83,1.19-2.87,4.56-4.06,7.54-5.1,1.94-.68,4.13-1.45,4.77-2.41.65-.97.53-3.31.42-5.38-.17-3.28-.35-6.68,1.82-8.86,2.18-2.18,5.58-2,8.86-1.83,2.06.11,4.4.23,5.38-.42.95-.64,1.72-2.83,2.41-4.77,1.05-2.97,2.23-6.34,5.1-7.54,2.83-1.17,5.88.29,8.83,1.7,1.88.9,4.01,1.92,5.19,1.69,1.09-.22,2.63-1.93,3.98-3.44,2.12-2.36,4.52-5.04,7.67-5.04s5.55,2.68,7.67,5.04c1.35,1.51,2.89,3.22,3.98,3.44,1.18.23,3.31-.79,5.19-1.69,2.95-1.41,6-2.87,8.83-1.7,2.87,1.19,4.06,4.56,5.1,7.54.68,1.94,1.45,4.13,2.41,4.77.97.65,3.31.53,5.38.42,3.28-.17,6.68-.36,8.86,1.82,2.18,2.18,2,5.58,1.83,8.86-.11,2.06-.23,4.4.42,5.38.64.95,2.83,1.72,4.77,2.4,2.97,1.05,6.34,2.23,7.54,5.1,1.17,2.82-.29,5.88-1.7,8.83-.9,1.88-1.92,4.01-1.69,5.19.22,1.09,1.93,2.63,3.44,3.98,2.36,2.12,5.04,4.52,5.04,7.67s-2.68,5.55-5.04,7.67c-1.51,1.35-3.22,2.89-3.44,3.98-.23,1.18.79,3.31,1.69,5.19,1.41,2.95,2.87,6,1.7,8.83-1.19,2.87-4.56,4.06-7.54,5.1-1.94.68-4.13,1.45-4.77,2.41-.65.97-.53,3.31-.42,5.38.17,3.28.35,6.68-1.82,8.86-2.18,2.18-5.58,2-8.86,1.83-2.06-.11-4.4-.23-5.38.42-.95.64-1.72,2.83-2.4,4.77-1.05,2.97-2.23,6.34-5.1,7.54-2.82,1.17-5.88-.29-8.83-1.7-1.88-.9-4.01-1.92-5.19-1.69-1.09.22-2.63,1.93-3.98,3.44-2.12,2.36-4.52,5.04-7.67,5.04ZM56.53,122.7c.41,0,.81.04,1.22.12,2.53.5,4.49,2.69,6.4,4.81,1.43,1.6,3.21,3.58,4.41,3.58s2.97-1.99,4.41-3.58c1.9-2.12,3.87-4.31,6.39-4.81,2.61-.52,5.32.78,7.93,2.03,1.89.9,4.23,2.02,5.25,1.6,1.06-.44,1.94-2.93,2.64-4.94.95-2.71,1.94-5.51,4.1-6.96,2.19-1.46,5.17-1.31,8.05-1.15,2.11.11,4.73.25,5.52-.55.8-.8.66-3.42.55-5.52-.15-2.88-.31-5.86,1.15-8.05,1.45-2.17,4.25-3.15,6.96-4.1,2-.7,4.5-1.58,4.94-2.64.42-1.02-.7-3.36-1.6-5.25-1.25-2.62-2.55-5.33-2.03-7.93.5-2.53,2.69-4.49,4.81-6.4,1.6-1.43,3.58-3.21,3.58-4.41s-1.99-2.97-3.58-4.41c-2.12-1.9-4.31-3.87-4.81-6.39-.52-2.61.78-5.32,2.03-7.93.9-1.89,2.03-4.24,1.6-5.25-.44-1.06-2.93-1.94-4.94-2.64-2.71-.95-5.51-1.94-6.96-4.1-1.46-2.19-1.31-5.17-1.15-8.05.11-2.11.25-4.73-.55-5.52s-3.42-.66-5.52-.55c-2.88.15-5.86.31-8.05-1.15-2.17-1.45-3.15-4.25-4.1-6.96-.7-2-1.58-4.5-2.64-4.94-1.02-.42-3.36.7-5.25,1.6-2.62,1.25-5.33,2.55-7.93,2.03-2.53-.5-4.49-2.69-6.4-4.81-1.43-1.6-3.21-3.58-4.41-3.58s-2.97,1.99-4.41,3.58c-1.9,2.12-3.87,4.31-6.39,4.81-2.61.52-5.32-.78-7.93-2.03-1.89-.9-4.23-2.03-5.25-1.6-1.06.44-1.94,2.93-2.64,4.94-.95,2.71-1.94,5.51-4.1,6.96-2.19,1.46-5.17,1.31-8.05,1.15-2.11-.11-4.73-.25-5.52.55-.8.8-.66,3.42-.55,5.52.15,2.88.31,5.86-1.15,8.05-1.45,2.17-4.25,3.15-6.96,4.1-2,.7-4.5,1.58-4.94,2.64-.42,1.02.7,3.36,1.6,5.25,1.25,2.62,2.55,5.33,2.03,7.93-.5,2.53-2.69,4.49-4.81,6.4-1.6,1.43-3.58,3.21-3.58,4.41s1.99,2.97,3.58,4.41c2.12,1.9,4.31,3.87,4.81,6.39.52,2.61-.78,5.32-2.03,7.93-.9,1.89-2.03,4.23-1.6,5.25.44,1.06,2.93,1.94,4.94,2.64,2.71.95,5.51,1.94,6.96,4.1,1.46,2.19,1.31,5.17,1.15,8.05-.11,2.11-.25,4.73.55,5.52.8.8,3.42.66,5.52.55,2.88-.15,5.86-.31,8.05,1.15,2.17,1.45,3.15,4.25,4.1,6.96.7,2,1.58,4.5,2.64,4.94,1.02.42,3.36-.7,5.25-1.6,2.21-1.06,4.49-2.15,6.72-2.15Z" style="fill:#f37021; stroke:#f37021; stroke-miterlimit:10; stroke-width:3px;"/><path d="M68.55,108.95c-22.27,0-40.4-18.12-40.4-40.4s18.12-40.4,40.4-40.4,40.4,18.12,40.4,40.4-18.12,40.4-40.4,40.4ZM68.55,32.54c-19.86,0-36.01,16.15-36.01,36.01s16.15,36.01,36.01,36.01,36.01-16.15,36.01-36.01-16.15-36.01-36.01-36.01Z" style="fill:#f37021; stroke:#f37021; stroke-miterlimit:10; stroke-width:3px;"/><path d="M47.72,180.57c-2.26,0-4.28-1.22-5.33-3.27l-8.28-16.08c-.35-.68-1.12-1.03-1.86-.84l-15.76,4.05c-2.4.61-4.81-.23-6.31-2.2-1.49-1.97-1.65-4.53-.4-6.66l23.74-40.83,3.79,2.21-23.74,40.83c-.49.85-.09,1.55.11,1.81.2.26.76.84,1.71.6l15.76-4.05c2.74-.7,5.56.56,6.86,3.08l8.28,16.08c.45.87,1.25.91,1.57.88.32-.02,1.11-.18,1.43-1.1l14.79-43.2,4.15,1.42-14.79,43.2c-.8,2.33-2.81,3.88-5.26,4.06-.15.01-.31.02-.46.02Z" style="fill:#f37021; stroke:#f37021; stroke-miterlimit:10; stroke-width:3px;"/><path d="M89.38,180.57c-.15,0-.31,0-.46-.02-2.45-.18-4.47-1.73-5.26-4.06l-14.79-43.2,4.15-1.42,14.79,43.2c.32.92,1.11,1.08,1.43,1.1.32.02,1.13-.02,1.57-.88l8.28-16.08c1.3-2.52,4.12-3.78,6.86-3.08l15.76,4.06c.95.24,1.51-.34,1.71-.6.2-.26.6-.96.11-1.81l-23.74-40.83,3.79-2.21,23.74,40.83c1.24,2.14,1.09,4.69-.41,6.67-1.49,1.97-3.91,2.81-6.3,2.2l-15.76-4.06c-.74-.19-1.51.15-1.86.84l-8.28,16.08c-1.05,2.05-3.07,3.27-5.33,3.27Z" style="fill:#f37021; stroke:#f37021; stroke-miterlimit:10; stroke-width:3px;"/><path d="M63.52,82.28c-1.03,0-2.02-.41-2.75-1.14l-10.79-10.79c-1.52-1.52-1.52-3.98,0-5.5,1.52-1.52,3.98-1.52,5.5,0l8.04,8.04,15.87-15.87c1.52-1.52,3.98-1.52,5.5,0,1.52,1.52,1.52,3.98,0,5.5l-18.62,18.62c-.73.73-1.72,1.14-2.75,1.14Z" style="fill:#f37021; stroke:#f37021; stroke-miterlimit:10; stroke-width:3px;"/></svg>