<?xml version="1.0" encoding="UTF-8"?><svg id="a" xmlns="http://www.w3.org/2000/svg" viewBox="0 0 245.79 90.81"><path d="M46.11,90.72c-22.94-1.72-40.73-21.59-39.36-44.76.05-.8.54-4.99.95-5.3,2.65-.32,2.1,2.85,3.13,4.34,1.9,2.76,6.07,3.17,8.52.84,2.13-2.03,1.95-4.71,2.83-7.25,2.19-6.25,10.18-14.24,16.44-16.44,2.42-.85,5.35-.83,7.24-2.84,2.48-2.63,1.84-7.5-1.58-8.98-1.42-.61-3.27-.29-3.66-2.35-.04-.4.36-.58.67-.68,3.44-1.12,10.58-.65,14.23-.05,12.43,2.04,23.26,9.57,29.5,20.42,1.76,3.06,3.44,6.76,4.04,10.24h-16.68c-1.49-2.36-2.76-4.78-4.67-6.85-12.03-12.98-33.18-10.28-41.72,5.09-7.84,14.1-.37,32.87,15.21,37.26,12.11,3.41,23.91-1.6,30.23-12.23h17.16c-4.85,16.44-19.41,27.58-36.34,29.3-.2.02-.34.22-.38.22-1.6.13-4.15.12-5.76,0Z" style="fill:#ee7c2e;"/><path d="M42.75,0c.49.36,1.18.27,1.81.47,1.86.59,3.58,2.76,4.19,4.57h-3.48c-.4,0-2.11.18-2.62.26-2.57.38-4.88,1.91-2.98,4.62s6.58.91,5.97,6.29c-.14,1.24-1.29,2.39-2.36,2.92-1.4.7-3.03.79-4.5,1.26-7.58,2.43-15.44,10.42-18.11,17.89-1.26,3.51-1.1,8.07-6.34,7.31-2.92-.42-2.27-4.81-4.64-6.17-1.18-.68-2.24-.84-3.18.3-1.29,1.55-1.36,6.54-1.44,8.65-.01.3.06.48-.36.35-.59-.18-3.12-2.2-3.49-2.75-.75-1.11-.74-2.51-1.2-3.72.08-1.49-.11-3.08,0-4.56.17-2.3.85-5.33,1.38-7.62C5.07,14.43,20.88.84,37.09.22l.38-.22h5.28Z" style="fill:#ee7c2e;"/><path d="M245.79,58.8c-.8.06-1.22.05-1.92-.24h1.68c-.22-2.84.29-6.09,0-8.88h.24v9.12Z" style="fill:#676566;"/><path d="M69.15,37.92h-11.28c.84-.89,1.73-1.14,1.9-2.54.68-5.53-8.05-4-5.69.93.45.94,1.28.93,1.87,1.61h-8.52c-.53,0-2.45.75-3.05,1.03-7.87,3.64-8.98,14.42-2.22,19.85,1.14.92,4.1,2.4,5.52,2.4h20.76c-2.94,4.92-8.49,8.91-14.05,10.31-18.06,4.54-34.15-13.39-27.75-30.87s28.43-20.83,40.25-6.8c.92,1.09,2.27,2.65,2.28,4.08ZM36.94,34.13c-4.7.64-2.4,8.05,1.67,5.76,3.04-1.71,1.65-6.21-1.67-5.76ZM32.75,59.44c2.92,2.54,7.2-2.56,3.65-4.97-3.28-2.22-6.62,2.38-3.65,4.97ZM49.64,62.21c-3.22.73-2.36,6.7,1.57,5.9s3.12-6.96-1.57-5.9Z" style="fill:#ee7c2e;"/><path d="M62.67,52.8l2.18-10.78,2.87.09-3.16,16.66h-3.06s-4.59-12.93-4.59-12.93l-5.3,12.58c-.57.73-2.18.3-3.06.35l-2.91-16.77,2.88.11.3.42,2.1,10.98c.33.07.26-.25.35-.48,1.3-3.13,2.21-6.83,3.61-9.84.13-.28.29-.79.47-.97.37-.38,2.82-.47,3.22.14,1.4,3.14,2.19,7.13,3.62,10.18.09.19.18.35.36.48l.12-.24Z" style="fill:#181617;"/><path d="M180.51,58.8c-.7-.14-3.08.36-3.33-.39-.28-2.51.26-5.44-.03-7.89-.31-2.67-3.58-1.33-4.8,0v8.28h-3.12v-8.04c0-.92-.84-1.78-1.8-1.82-.84-.03-3.24,1.15-3.24,1.82v8.04h-3.12v-12.24l2.42.1.58,1.33c1.58-1.39,4.85-2.04,6.69-.92.41.25.79.93,1.23.93,2.2-1.5,6.55-2.6,7.98.42.09.19.54,1.53.54,1.62v8.76Z" style="fill:#181617;"/><path d="M222.75,42v5.28c2.75-.86,8.61-1.79,9.1,2.3.3,2.54-1.14,3.17-3.04,4.13-.22.11-.39-.07-.3.41l3.6,4.68h-3.48c-1.07-1.41-2.63-2.89-3.58-4.34-.42-.64-.79-1.03-.62-1.9,7.48-.76,3.85-5.63-1.68-2.64v8.88l-3.26-.22-.07-16.18c.25-.75,2.62-.25,3.33-.39Z" style="fill:#191718;"/><path d="M111.27,42c.39.04,1.52.33,1.93.47,1.55.52,2.48,2.13,2.53,3.73.1,3.94-4.07,5.93-7.46,6.12l-.14-2.66c1.61-.57,3.97-.94,4.17-3.04.06-.59-.42-1.74-1.03-1.74h-5.64v13.92h-3.12v-16.44l.36-.36c2.69.2,5.76-.27,8.4,0Z" style="fill:#181617;"/><path d="M194.91,58.44c-.96,1.21-2.52-.51-3.24-.51-.29,0-.88.43-1.31.52-2.97.62-7.47.38-7.47-3.61s5.83-4.03,8.66-3.48c.14-1.35-.06-1.76-1.33-2.15-2-.61-4.11-.1-6.11.23l.14-2.43c2.55-.76,9.4-1.07,10.31,2.18.06.22.35,1.7.35,1.81v7.44ZM191.52,53.79c-1.4-.44-6.08-.91-5.21,1.73,1.39,1.49,3.62.63,5.21-.12v-1.61Z" style="fill:#191717;"/><path d="M245.55,49.68c.29,2.79-.22,6.04,0,8.88h-1.68c-.4-.17-.98-.7-1.28-.68s-1.03.49-1.55.61c-2.54.57-6.31.42-7.08-2.61-1.23-4.8,5.25-5.2,8.47-4.52.37-3.65-5.2-2.24-7.44-1.92l-.02-2.25c.1-.6,10.11-1.96,10.57,2.49ZM242.4,53.79c-1.79-.49-6.61-.91-4.85,2.15,1.72.67,5.65.55,4.85-2.15Z" style="fill:#181717;"/><path d="M81.39,44.64h-8.4v4.32h7.92v2.64h-7.92v7.2h-3.12v-16.44l.36-.36h10.8c.68.63.25,1.78.36,2.64Z" style="fill:#1a1819;"/><path d="M143.55,53.76h-8.64c.47,3.51,5.66,2.33,8.16,2.16-.11.62.32,2.37-.39,2.61-3.32.27-8.41.86-10.21-2.68-1.18-2.32-1.05-6.36,1.12-8.08,2.02-1.61,7.1-1.82,8.87.25.26.31,1.09,2,1.09,2.27v3.48ZM140.43,51.6c.12-3.75-5.27-3.51-5.52,0h5.52Z" style="fill:#181617;"/><path d="M117.39,46.56h2.63s.25,1.44.25,1.44c2.06-1.35,6.14-2.34,8.08-.4.22.22,1.04,1.75,1.04,1.96v9.24h-3.12v-8.28c0-.13-.43-.96-.59-1.09-1.34-1.19-4.21.05-5.17,1.33v8.04h-3.12v-12.24Z" style="fill:#181717;"/><path d="M149.07,46.56v8.28c0,.24.72,1.01,1.02,1.14,1.65.71,3.53-.3,4.74-1.38v-8.04h3.12v12.24l-2.41-.11-.47-1.57c-2.15,1.56-6.36,2.57-8.29.25-.22-.27-.83-1.32-.83-1.57v-9.24h3.12Z" style="fill:#181617;"/><path d="M211.24,55.2l3.24-8.4,3.48-.24-5.72,13.36c-1.01,1.59-2.46,3.17-4.23,3.93l-1.57-2.17c1.13-.2,3.21-2.02,3.08-3.18l-4.76-11.94,3.48.24,3,8.4Z" style="fill:#181716;"/><path d="M96.27,42v2.88h-5.04v13.92c-1.06-.15-2.53.38-3.36-.36v-13.56h-4.8v-2.88h13.2Z" style="fill:#191718;"/><path d="M197.79,44.64h2.63s.26,1.91.26,1.91h3.11s0,2.41,0,2.41h-2.64s0,6.36,0,6.36c0,.87,1.93,1.24,2.64,1.08v2.4c-1.64-.03-4.55.35-5.49-1.35-.09-.17-.51-1.32-.51-1.41v-11.4Z" style="fill:#191718;"/><path d="M184.12,64.8l.48,3.84c.8-.3,1.23-3.63,1.46-3.82.15-.13,1.12-.07,1.3.21l1.2,3.37.82-3.46.98-.14-.97,5.75c-.06.05-1.03.06-1.16-.02-.14-.09-.86-2.66-1.05-3.15-.12-.32-.3-1.08-.66-1.14l-1.5,4.26-1.14.3-.96-6h1.2Z" style="fill:#1a1917;"/><path d="M207.39,66.6c.12-.42.57-.43.94-.18.76.51.74-.16,1.58-.16.49,0,.95.42,1.44.43.8,0,1.52-.97,2.39.04.52.6.9,5.01-.72,3.84l-.15-2.97-.55-.39c-1.53-.04-1.02,2.36-1.09,3.36h-.96c-.19-.89.59-3.52-.83-3.37s-.68,2.42-.88,3.33l-.61.25c-.2.1-.56-.25-.56-.33,0-.86-.18-3.24,0-3.84Z" style="fill:#1e1c1b;"/><path d="M227.91,64.8c.89.15,1.05,1.56.61,2.24-.13.2-.87.44-.73.64,1.47-.01,1.14,2.88.12,2.88h-3.48v-5.76c1.07.12,2.46-.17,3.48,0ZM225.39,65.76v4.08c.98,0,2.31.21,2.36-1.05l-1.4-.99.17-.6c.87-.06,1.14-.63,1.03-1.44h-2.16Z" style="fill:#1a1817;"/><path d="M201.87,64.8v5.76c-2.01-.11-4.1.71-4.1-2.04,0-2.1,1.29-2.53,3.14-2.04v-1.68s.96,0,.96,0ZM200.88,67.47l-1.28-.29c-1.6.19-.67,3.72,1.28,2.38v-2.09Z" style="fill:#191817;"/><path d="M241.47,64.8h.96s0,1.68,0,1.68c.75.13,1.42-.38,2.17-.14,1.4.44,1.22,2.13,0,2.66l.96,1.8c-.94.46-2.79-2.16-2.4-2.4,1.84.17,1.9-1.74-.01-1.09-1.24.42-.54,2.2-.71,3.25h-.96v-5.76Z" style="fill:#1a1918;"/><path d="M232.35,67.92c.1-1.3-2.33-.46-2.64-.72v-.71c.9-.24,2.49-.4,3.26.22s.79,4.07.22,4.09c-1.06-.91-3.86.81-3.74-1.55.07-1.39,1.88-1.36,2.9-1.32ZM232.36,68.88c-.98-.04-2.48-.18-1.52.97.76-.05,1.77.04,1.52-.97Z" style="fill:#201e1d;"/><path d="M240.51,70.56c-1.33-.31-2.84.48-3.96-.48-.74-1.86,1.31-2.58,2.76-1.92.35-1.65-2.29-.67-2.64-.96v-.71c3.57-.92,4.16.88,3.84,4.07ZM239.32,68.88h-1.56s-.12.6-.12.6c.29.69,2.08.38,1.68-.6Z" style="fill:#201e1d;"/><path d="M218.62,66.78c.57.57.18,2.93.29,3.79-1.17-.34-3.11.56-3.85-.59-1.04-1.6,1.38-2.34,2.65-2.05-.03-1.13-1.73-.78-2.4-.48l.03-.93c.79-.34,2.67-.34,3.28.27ZM217.72,68.88h-1.56s-.12.6-.12.6c.29.69,2.08.38,1.68-.6Z" style="fill:#1e1c1b;"/><path d="M194.67,70.56c-1.71-.29-4.47.91-3.72-1.92.68-.77,1.81-.75,2.76-.72.07-.48.04-.39-.3-.54-.72-.31-1.64-.28-2.34.06l.03-.93c1.26-.43,2.56-.33,3.57.57v3.48ZM193.72,68.88c-.45-.02-2.08-.18-1.92.6.46.63,1.18.34,1.78.14l.14-.74Z" style="fill:#1c1b19;"/><path d="M206.37,66.78c.42.44.29,1.51.3,2.1-.75.04-1.53-.06-2.28,0-.23.02-.84-.11-.59.36.36.69,1.88.76,2.53.42l.35.91c-1.11-.09-2.39.29-3.35-.37-.58-.5-.61-1.93-.48-2.63.26-1.35,2.66-1.71,3.53-.78ZM205.44,67.23c-.44-.32-1.79.15-1.65.93h1.92c.08-.08-.2-.87-.27-.93Z" style="fill:#1b1a19;"/><path d="M219.87,66.6c.08-.28.54-.42.84-.37.14.02.08.67.45.47l.87-.46-.05.91c-1.49.46-.75,2.2-.91,3.41h-1.2c.19-1.05-.26-3.07,0-3.96Z" style="fill:#292726;"/><rect x="195.87" y="64.8" width=".96" height="5.76" style="fill:#191816;"/><rect x="234.51" y="64.8" width=".96" height="5.76" style="fill:#181717;"/><path d="M62.67,52.8l-.12.24c-.18-.13-.27-.28-.36-.48l.48.24Z" style="fill:#817f80;"/><path d="M225.39,65.76h2.16c.11.81-.16,1.38-1.03,1.44l-.17.6,1.4.99c-.05,1.26-1.38,1.05-2.36,1.05v-4.08Z" style="fill:#f6f6f4;"/><path d="M200.88,67.47v2.09c-1.95,1.34-2.89-2.19-1.28-2.38l1.28.29Z" style="fill:#f2f1f0;"/><path d="M232.36,68.88c.25,1.02-.76.92-1.52.97-.96-1.16.55-1.02,1.52-.97Z" style="fill:#ecebe9;"/><path d="M239.32,68.88c.4.97-1.39,1.28-1.68.6l.12-.6h1.56Z" style="fill:#f2f1f0;"/><path d="M217.72,68.88c.4.97-1.39,1.28-1.68.6l.12-.6h1.56Z" style="fill:#f2f1ef;"/><path d="M193.72,68.88l-.14.74c-.6.2-1.32.48-1.78-.14-.16-.78,1.47-.61,1.92-.6Z" style="fill:#e9e8e7;"/><path d="M205.44,67.23c.08.05.35.85.27.93h-1.92c-.15-.77,1.2-1.25,1.65-.93Z" style="fill:#e8e7e6;"/></svg>